<mxfile host="app.diagrams.net" modified="2023-12-14T03:44:57.949Z" agent="Mozilla/5.0 (Windows NT 10.0; Win64; x64) AppleWebKit/537.36 (KHTML, like Gecko) Chrome/120.0.0.0 Safari/537.36 Edg/120.0.0.0" etag="qr-Hacyvdyo4qgCDKXhU" version="22.1.8" type="github">
  <diagram name="第 1 页" id="ExTiOvINmQSWUFrJPMDl">
    <mxGraphModel dx="1252" dy="674" grid="1" gridSize="10" guides="1" tooltips="1" connect="1" arrows="1" fold="1" page="1" pageScale="1" pageWidth="827" pageHeight="1169" math="0" shadow="0">
      <root>
        <mxCell id="0" />
        <mxCell id="1" parent="0" />
        <mxCell id="yBqRNHplVpy1pxyJX8kC-1" value="" style="rounded=0;whiteSpace=wrap;html=1;fillColor=#dae8fc;strokeColor=#6c8ebf;" vertex="1" parent="1">
          <mxGeometry x="30" y="80" width="100" height="240" as="geometry" />
        </mxCell>
        <mxCell id="yBqRNHplVpy1pxyJX8kC-4" value="" style="rounded=0;whiteSpace=wrap;html=1;fillColor=#d5e8d4;strokeColor=#82b366;" vertex="1" parent="1">
          <mxGeometry x="390" y="80" width="100" height="240" as="geometry" />
        </mxCell>
        <mxCell id="yBqRNHplVpy1pxyJX8kC-6" value="文件1" style="rounded=1;whiteSpace=wrap;html=1;" vertex="1" parent="1">
          <mxGeometry x="390" y="100" width="100" height="50" as="geometry" />
        </mxCell>
        <mxCell id="yBqRNHplVpy1pxyJX8kC-9" value="" style="rounded=0;html=1;jettySize=auto;orthogonalLoop=1;fontSize=11;endArrow=block;endFill=0;endSize=8;strokeWidth=1;shadow=0;labelBackgroundColor=none;edgeStyle=orthogonalEdgeStyle;exitX=1;exitY=0.5;exitDx=0;exitDy=0;entryX=0;entryY=0.5;entryDx=0;entryDy=0;" edge="1" parent="1">
          <mxGeometry relative="1" as="geometry">
            <mxPoint x="140" y="140" as="sourcePoint" />
            <mxPoint x="390" y="140" as="targetPoint" />
          </mxGeometry>
        </mxCell>
        <mxCell id="yBqRNHplVpy1pxyJX8kC-10" value="文件2" style="rounded=1;whiteSpace=wrap;html=1;" vertex="1" parent="1">
          <mxGeometry x="390" y="160" width="100" height="50" as="geometry" />
        </mxCell>
        <mxCell id="yBqRNHplVpy1pxyJX8kC-12" value="..." style="text;html=1;strokeColor=none;fillColor=none;align=center;verticalAlign=middle;whiteSpace=wrap;rounded=0;fontStyle=1;fontSize=19;" vertex="1" parent="1">
          <mxGeometry x="410" y="240" width="60" height="30" as="geometry" />
        </mxCell>
        <mxCell id="yBqRNHplVpy1pxyJX8kC-13" value="终端文件下载队列" style="text;html=1;strokeColor=none;fillColor=none;align=center;verticalAlign=middle;whiteSpace=wrap;rounded=0;fontColor=#0000FF;" vertex="1" parent="1">
          <mxGeometry x="410" y="280" width="60" height="30" as="geometry" />
        </mxCell>
        <mxCell id="yBqRNHplVpy1pxyJX8kC-14" value="web端" style="text;html=1;strokeColor=none;fillColor=none;align=center;verticalAlign=middle;whiteSpace=wrap;rounded=0;fontColor=#0000FF;" vertex="1" parent="1">
          <mxGeometry x="50" y="280" width="60" height="30" as="geometry" />
        </mxCell>
        <mxCell id="yBqRNHplVpy1pxyJX8kC-16" value="通知下载" style="text;html=1;strokeColor=none;fillColor=none;align=center;verticalAlign=middle;whiteSpace=wrap;rounded=0;" vertex="1" parent="1">
          <mxGeometry x="210" y="100" width="60" height="30" as="geometry" />
        </mxCell>
        <mxCell id="yBqRNHplVpy1pxyJX8kC-29" value="" style="rounded=0;whiteSpace=wrap;html=1;fillColor=#dae8fc;strokeColor=#6c8ebf;" vertex="1" parent="1">
          <mxGeometry x="30" y="440" width="100" height="240" as="geometry" />
        </mxCell>
        <mxCell id="yBqRNHplVpy1pxyJX8kC-30" value="" style="rounded=0;whiteSpace=wrap;html=1;fillColor=#d5e8d4;strokeColor=#82b366;" vertex="1" parent="1">
          <mxGeometry x="390" y="440" width="100" height="240" as="geometry" />
        </mxCell>
        <mxCell id="yBqRNHplVpy1pxyJX8kC-31" value="文件1" style="rounded=1;whiteSpace=wrap;html=1;" vertex="1" parent="1">
          <mxGeometry x="30" y="460" width="100" height="50" as="geometry" />
        </mxCell>
        <mxCell id="yBqRNHplVpy1pxyJX8kC-32" value="" style="rounded=0;html=1;jettySize=auto;orthogonalLoop=1;fontSize=11;endArrow=block;endFill=0;endSize=8;strokeWidth=1;shadow=0;labelBackgroundColor=none;edgeStyle=orthogonalEdgeStyle;exitX=1;exitY=0.5;exitDx=0;exitDy=0;entryX=0;entryY=0.5;entryDx=0;entryDy=0;" edge="1" parent="1">
          <mxGeometry relative="1" as="geometry">
            <mxPoint x="140" y="500" as="sourcePoint" />
            <mxPoint x="390" y="500" as="targetPoint" />
          </mxGeometry>
        </mxCell>
        <mxCell id="yBqRNHplVpy1pxyJX8kC-33" value="文件2" style="rounded=1;whiteSpace=wrap;html=1;" vertex="1" parent="1">
          <mxGeometry x="30" y="520" width="100" height="50" as="geometry" />
        </mxCell>
        <mxCell id="yBqRNHplVpy1pxyJX8kC-34" value="..." style="text;html=1;strokeColor=none;fillColor=none;align=center;verticalAlign=middle;whiteSpace=wrap;rounded=0;fontStyle=1;fontSize=19;" vertex="1" parent="1">
          <mxGeometry x="50" y="570" width="60" height="30" as="geometry" />
        </mxCell>
        <mxCell id="yBqRNHplVpy1pxyJX8kC-35" value="终端" style="text;html=1;strokeColor=none;fillColor=none;align=center;verticalAlign=middle;whiteSpace=wrap;rounded=0;fontColor=#0000FF;" vertex="1" parent="1">
          <mxGeometry x="410" y="640" width="60" height="30" as="geometry" />
        </mxCell>
        <mxCell id="yBqRNHplVpy1pxyJX8kC-36" value="web端" style="text;html=1;strokeColor=none;fillColor=none;align=center;verticalAlign=middle;whiteSpace=wrap;rounded=0;fontColor=#0000FF;" vertex="1" parent="1">
          <mxGeometry x="50" y="640" width="60" height="30" as="geometry" />
        </mxCell>
        <mxCell id="yBqRNHplVpy1pxyJX8kC-37" value="" style="rounded=0;html=1;jettySize=auto;orthogonalLoop=1;fontSize=11;endArrow=block;endFill=0;endSize=8;strokeWidth=1;shadow=0;labelBackgroundColor=none;edgeStyle=orthogonalEdgeStyle;exitX=0;exitY=0.75;exitDx=0;exitDy=0;" edge="1" parent="1">
          <mxGeometry relative="1" as="geometry">
            <mxPoint x="380" y="600" as="sourcePoint" />
            <mxPoint x="130" y="600" as="targetPoint" />
          </mxGeometry>
        </mxCell>
        <mxCell id="yBqRNHplVpy1pxyJX8kC-38" value="终端拦截下载事件" style="text;html=1;strokeColor=none;fillColor=none;align=center;verticalAlign=middle;whiteSpace=wrap;rounded=0;" vertex="1" parent="1">
          <mxGeometry x="210" y="460" width="110" height="30" as="geometry" />
        </mxCell>
        <mxCell id="yBqRNHplVpy1pxyJX8kC-39" value="下载信息回传" style="text;html=1;strokeColor=none;fillColor=none;align=center;verticalAlign=middle;whiteSpace=wrap;rounded=0;" vertex="1" parent="1">
          <mxGeometry x="210" y="560" width="110" height="30" as="geometry" />
        </mxCell>
        <mxCell id="yBqRNHplVpy1pxyJX8kC-41" value="文件下载队列" style="text;html=1;strokeColor=none;fillColor=none;align=center;verticalAlign=middle;whiteSpace=wrap;rounded=0;fontColor=#000000;" vertex="1" parent="1">
          <mxGeometry x="50" y="610" width="60" height="30" as="geometry" />
        </mxCell>
        <mxCell id="yBqRNHplVpy1pxyJX8kC-43" value="主动获取下载状态" style="text;html=1;strokeColor=none;fillColor=none;align=center;verticalAlign=middle;whiteSpace=wrap;rounded=0;" vertex="1" parent="1">
          <mxGeometry x="210" y="230" width="110" height="30" as="geometry" />
        </mxCell>
        <mxCell id="yBqRNHplVpy1pxyJX8kC-44" value="" style="rounded=0;html=1;jettySize=auto;orthogonalLoop=1;fontSize=11;endArrow=block;endFill=0;endSize=8;strokeWidth=1;shadow=0;labelBackgroundColor=none;edgeStyle=orthogonalEdgeStyle;exitX=1;exitY=0.5;exitDx=0;exitDy=0;entryX=0;entryY=0.5;entryDx=0;entryDy=0;" edge="1" parent="1">
          <mxGeometry relative="1" as="geometry">
            <mxPoint x="140" y="270" as="sourcePoint" />
            <mxPoint x="390" y="270" as="targetPoint" />
          </mxGeometry>
        </mxCell>
        <mxCell id="yBqRNHplVpy1pxyJX8kC-45" value="之前的下载流程" style="text;html=1;strokeColor=none;fillColor=none;align=center;verticalAlign=middle;whiteSpace=wrap;rounded=0;" vertex="1" parent="1">
          <mxGeometry x="210" y="320" width="130" height="30" as="geometry" />
        </mxCell>
        <mxCell id="yBqRNHplVpy1pxyJX8kC-46" value="调整后的下载流程" style="text;html=1;strokeColor=none;fillColor=none;align=center;verticalAlign=middle;whiteSpace=wrap;rounded=0;" vertex="1" parent="1">
          <mxGeometry x="200" y="700" width="130" height="30" as="geometry" />
        </mxCell>
        <mxCell id="yBqRNHplVpy1pxyJX8kC-48" value="文件模块的接口和模块关系" style="text;html=1;strokeColor=none;fillColor=none;align=center;verticalAlign=middle;whiteSpace=wrap;rounded=0;" vertex="1" parent="1">
          <mxGeometry x="390" y="1130" width="220" height="30" as="geometry" />
        </mxCell>
        <mxCell id="yBqRNHplVpy1pxyJX8kC-51" value="" style="edgeStyle=orthogonalEdgeStyle;rounded=0;orthogonalLoop=1;jettySize=auto;html=1;entryX=0;entryY=0.5;entryDx=0;entryDy=0;" edge="1" parent="1" source="yBqRNHplVpy1pxyJX8kC-49" target="yBqRNHplVpy1pxyJX8kC-50">
          <mxGeometry relative="1" as="geometry" />
        </mxCell>
        <mxCell id="yBqRNHplVpy1pxyJX8kC-49" value="文件模块" style="rounded=0;whiteSpace=wrap;html=1;fillColor=#e1d5e7;strokeColor=#9673a6;" vertex="1" parent="1">
          <mxGeometry x="40" y="910" width="150" height="80" as="geometry" />
        </mxCell>
        <mxCell id="yBqRNHplVpy1pxyJX8kC-61" value="" style="edgeStyle=orthogonalEdgeStyle;rounded=0;orthogonalLoop=1;jettySize=auto;html=1;" edge="1" parent="1" source="yBqRNHplVpy1pxyJX8kC-50" target="yBqRNHplVpy1pxyJX8kC-60">
          <mxGeometry relative="1" as="geometry" />
        </mxCell>
        <mxCell id="yBqRNHplVpy1pxyJX8kC-50" value="批量下载接口" style="rounded=0;whiteSpace=wrap;html=1;fillColor=#ffe6cc;strokeColor=#d79b00;" vertex="1" parent="1">
          <mxGeometry x="320" y="790" width="170" height="50" as="geometry" />
        </mxCell>
        <mxCell id="yBqRNHplVpy1pxyJX8kC-59" value="" style="edgeStyle=orthogonalEdgeStyle;rounded=0;orthogonalLoop=1;jettySize=auto;html=1;" edge="1" parent="1" source="yBqRNHplVpy1pxyJX8kC-52" target="yBqRNHplVpy1pxyJX8kC-58">
          <mxGeometry relative="1" as="geometry" />
        </mxCell>
        <mxCell id="yBqRNHplVpy1pxyJX8kC-52" value="根据文件id获取文件信息接口" style="rounded=0;whiteSpace=wrap;html=1;fillColor=#ffe6cc;strokeColor=#d79b00;" vertex="1" parent="1">
          <mxGeometry x="320" y="925" width="170" height="50" as="geometry" />
        </mxCell>
        <mxCell id="yBqRNHplVpy1pxyJX8kC-57" value="" style="edgeStyle=orthogonalEdgeStyle;rounded=0;orthogonalLoop=1;jettySize=auto;html=1;" edge="1" parent="1" source="yBqRNHplVpy1pxyJX8kC-53" target="yBqRNHplVpy1pxyJX8kC-56">
          <mxGeometry relative="1" as="geometry" />
        </mxCell>
        <mxCell id="yBqRNHplVpy1pxyJX8kC-53" value="全量文件信息接口" style="rounded=0;whiteSpace=wrap;html=1;fillColor=#ffe6cc;strokeColor=#d79b00;" vertex="1" parent="1">
          <mxGeometry x="320" y="1050" width="170" height="50" as="geometry" />
        </mxCell>
        <mxCell id="yBqRNHplVpy1pxyJX8kC-54" value="" style="edgeStyle=orthogonalEdgeStyle;rounded=0;orthogonalLoop=1;jettySize=auto;html=1;entryX=0;entryY=0.5;entryDx=0;entryDy=0;exitX=1;exitY=0.5;exitDx=0;exitDy=0;" edge="1" parent="1" source="yBqRNHplVpy1pxyJX8kC-49" target="yBqRNHplVpy1pxyJX8kC-52">
          <mxGeometry relative="1" as="geometry">
            <mxPoint x="200" y="960" as="sourcePoint" />
            <mxPoint x="330" y="825" as="targetPoint" />
          </mxGeometry>
        </mxCell>
        <mxCell id="yBqRNHplVpy1pxyJX8kC-55" value="" style="edgeStyle=orthogonalEdgeStyle;rounded=0;orthogonalLoop=1;jettySize=auto;html=1;entryX=0;entryY=0.5;entryDx=0;entryDy=0;exitX=1;exitY=0.5;exitDx=0;exitDy=0;" edge="1" parent="1" source="yBqRNHplVpy1pxyJX8kC-49" target="yBqRNHplVpy1pxyJX8kC-53">
          <mxGeometry relative="1" as="geometry">
            <mxPoint x="200" y="960" as="sourcePoint" />
            <mxPoint x="330" y="825" as="targetPoint" />
          </mxGeometry>
        </mxCell>
        <mxCell id="yBqRNHplVpy1pxyJX8kC-56" value="主要用于文件列表展示" style="rounded=0;whiteSpace=wrap;html=1;fillColor=#d5e8d4;strokeColor=#82b366;" vertex="1" parent="1">
          <mxGeometry x="610" y="1050" width="170" height="50" as="geometry" />
        </mxCell>
        <mxCell id="yBqRNHplVpy1pxyJX8kC-58" value="文件预览，文件外部打开、文件下载进度展示" style="rounded=0;whiteSpace=wrap;html=1;fillColor=#d5e8d4;strokeColor=#82b366;" vertex="1" parent="1">
          <mxGeometry x="600" y="925" width="250" height="50" as="geometry" />
        </mxCell>
        <mxCell id="yBqRNHplVpy1pxyJX8kC-60" value="初始化文件下载，会中上传文件下载，U盘导入文件下载" style="rounded=0;whiteSpace=wrap;html=1;fillColor=#d5e8d4;strokeColor=#82b366;" vertex="1" parent="1">
          <mxGeometry x="570" y="790" width="320" height="50" as="geometry" />
        </mxCell>
        <mxCell id="yBqRNHplVpy1pxyJX8kC-62" value="计算下载进度" style="text;html=1;strokeColor=none;fillColor=none;align=center;verticalAlign=middle;whiteSpace=wrap;rounded=0;" vertex="1" parent="1">
          <mxGeometry x="410" y="580" width="60" height="30" as="geometry" />
        </mxCell>
      </root>
    </mxGraphModel>
  </diagram>
</mxfile>
